#!OML:ASF X:\für Bonn\!DataBase\2005_08_10_Bjorn_Final\c3d\bjorn.ASF
:FULLY-SPECIFIED
:DEGREES
290
root -1.37638 17.2616 4.22032 -544.637 32.3212 -540.731
lowerback 1.23858 5.60713 4.86907
upperback 6.43205 8.05948 -3.36401
thorax 7.23839 4.59976 -5.75308
lowerneck -1.50767 1.93183 10.531
upperneck 9.31629 2.89699 -6.10522
head 3.25349 1.66188 -3.47188
rclavicle 2.88238e-015 3.10104e-014
rhumerus 88.6002 13.2342 -75.3422
rradius 49.775
rwrist 31.3085
rhand -31.6014 11.2649
rfingers 7.12502
rthumb -4.86386 -18.6593
lclavicle 2.88238e-015 3.10104e-014
lhumerus 59.0544 -18.4921 78.2195
lradius 76.3322
lwrist 51.3959
lhand -46.2728 -4.59884
lfingers 7.12502
lthumb -19.008 24.4924
rfemur 371.59 6.51469 -357.68
rtibia 34.0761
rfoot -27.1863 14.0955
rtoes -35.28
lfemur -30.059 -0.783451 -16.7737
ltibia 63.6006
lfoot -21.8348 5.04683
ltoes -30.3661
291
root -1.39395 17.0946 4.14963 -545.512 32.064 -541.435
lowerback 1.59434 5.4811 4.41416
upperback 6.92669 8.00236 -3.48238
thorax 7.51253 4.60091 -5.64077
lowerneck -1.67919 1.97173 10.5078
upperneck 9.19525 2.91483 -6.0802
head 3.24675 1.66098 -3.45795
rclavicle 2.70347e-014 7.95139e-016
rhumerus 88.5205 13.2137 -74.9708
rradius 50.6217
rwrist 31.2827
rhand -31.168 10.7495
rfingers 7.12502
rthumb -4.44539 -19.1839
lclavicle 2.70347e-014 7.95139e-016
lhumerus 58.9106 -18.4798 77.991
lradius 77.0679
lwrist 50.9897
lhand -46.1268 -4.39913
lfingers 7.12502
lthumb -18.8677 24.7058
rfemur 371.416 7.36269 -358.202
rtibia 36.3382
rfoot -29.2395 13.2705
rtoes -37.4152
lfemur -30.2276 -0.864886 -17.7357
ltibia 65.2637
lfoot -22.9979 5.24746
ltoes -29.4305
292
root -1.40869 16.9417 4.08387 -546.45 31.7969 -542.193
lowerback 1.9612 5.3482 3.86479
upperback 7.43479 7.94667 -3.60292
thorax 7.7842 4.59833 -5.47873
lowerneck -1.81371 2.02582 10.5009
upperneck 9.03594 2.95335 -6.05278
head 3.22439 1.67079 -3.44543
rclavicle -1.56046e-014 1.66979e-014
rhumerus 88.1782 13.3246 -74.6669
rradius 51.5877
rwrist 31.2311
rhand -30.7758 10.3695
rfingers 7.12502
rthumb -4.06663 -19.5714
lclavicle -1.56046e-014 1.66979e-014
lhumerus 58.5181 -18.4747 77.8937
lradius 77.907
lwrist 50.6313
lhand -45.9903 -4.40413
lfingers 7.12502
lthumb -18.7364 24.7135
rfemur 371.252 8.13172 -358.763
rtibia 38.5717
rfoot -30.7535 12.5625
rtoes -38.9664
lfemur -30.2809 -0.922906 -18.7221
ltibia 66.7888
lfoot -24.1501 5.1336
ltoes -28.0212
293
root -1.42166 16.8056 4.02248 -547.388 31.5251 -542.885
lowerback 2.37434 5.20251 3.32432
upperback 7.90825 7.86948 -3.6872
thorax 7.98712 4.57946 -5.29163
lowerneck -1.88427 2.07311 10.4951
upperneck 8.95709 3.00258 -6.07376
head 3.21683 1.68899 -3.44831
rclavicle 1.12015e-013 -6.12257e-014
rhumerus 87.5511 13.5898 -74.4047
rradius 52.6022
rwrist 31.1684
rhand -30.5054 10.0128
rfingers 7.12502
rthumb -3.80551 -19.933
lclavicle 1.12015e-013 -6.12257e-014
lhumerus 57.8414 -18.478 77.9976
lradius 78.7859
lwrist 50.2946
lhand -45.8258 -4.64034
lfingers 7.12502
lthumb -18.5782 24.4925
rfemur 371.141 8.87804 -359.219
rtibia 40.7091
rfoot -31.9338 11.7821
rtoes -40.3955
lfemur -30.2159 -0.922837 -19.6201
ltibia 68.1694
lfoot -25.2003 4.80339
ltoes -26.5261
294
root -1.43246 16.6909 3.96387 -548.113 31.3121 -543.318
lowerback 2.69521 5.07663 2.96746
upperback 8.33925 7.79859 -3.70422
thorax 8.21744 4.56612 -5.126
lowerneck -1.91983 2.11528 10.4607
upperneck 8.87671 3.04924 -6.07249
head 3.20207 1.70684 -3.44008
rclavicle -4.8901e-014 1.98785e-014
rhumerus 86.8942 13.8609 -74.0607
rradius 53.5098
rwrist 30.8732
rhand -30.2612 9.72175
rfingers 7.12502
rthumb -3.56969 -20.2281
lclavicle -4.8901e-014 1.98785e-014
lhumerus 57.1217 -18.4486 78.1933
lradius 79.6
lwrist 50.0252
lhand -45.8368 -4.69096
lfingers 7.12502
lthumb -18.5887 24.4409
rfemur 370.984 9.57094 -359.412
rtibia 42.6775
rfoot -32.7956 10.876
rtoes -41.8026
lfemur -30.1557 -0.831756 -20.2393
ltibia 69.4002
lfoot -26.1018 4.48513
ltoes -25.636
295
root -1.44032 16.5974 3.90663 -548.567 31.163 -543.48
lowerback 2.87429 4.97204 2.79394
upperback 8.69562 7.7251 -3.63996
thorax 8.46318 4.54903 -4.96451
lowerneck -1.93132 2.1601 10.34
upperneck 8.86725 3.10936 -6.03059
head 3.20369 1.73332 -3.40495
rclavicle -4.23411e-014 3.89618e-014
rhumerus 86.1807 14.1515 -73.6466
rradius 54.3093
rwrist 30.3799
rhand -29.9527 9.44137
rfingers 7.12502
rthumb -3.27173 -20.5133
lclavicle -4.23411e-014 3.89618e-014
lhumerus 56.3753 -18.3741 78.5529
lradius 80.283
lwrist 49.8657
lhand -45.9807 -4.59242
lfingers 7.12502
lthumb -18.7271 24.5261
rfemur 370.744 10.1789 -359.35
rtibia 44.4604
rfoot -33.4224 9.84093
rtoes -43.3349
lfemur -30.135 -0.687916 -20.5619
ltibia 70.4559
lfoot -26.8177 4.12516
ltoes -24.8991
296
root -1.44586 16.5274 3.84764 -548.876 31.07 -543.488
lowerback 2.99264 4.89399 2.75553
upperback 8.98238 7.67061 -3.56952
thorax 8.68982 4.54358 -4.86701
lowerneck -1.9823 2.1929 10.3264
upperneck 8.97918 3.15649 -6.0348
head 3.24939 1.75829 -3.40159
rclavicle -2.98177e-015 2.0276e-014
rhumerus 85.3936 14.4227 -73.3413
rradius 55.0079
rwrist 29.9104
rhand -29.4637 9.2209
rfingers 7.12502
rthumb -2.79951 -20.7405
lclavicle -2.98177e-015 2.0276e-014
lhumerus 55.6485 -18.3192 78.9193
lradius 80.7526
lwrist 49.8121
lhand -46.3773 -4.29589
lfingers 7.12502
lthumb -19.1086 24.7854
rfemur 370.503 10.6833 -359.169
rtibia 46.0233
rfoot -33.754 8.84427
rtoes -44.7055
lfemur -30.0589 -0.569399 -20.7271
ltibia 71.319
lfoot -27.4141 3.80455
ltoes -24.1186
297
root -1.44863 16.4776 3.788 -549.051 31.0089 -543.346
lowerback 3.05673 4.83829 2.804
upperback 9.20023 7.6232 -3.45009
thorax 8.87749 4.53679 -4.76326
lowerneck -2.00426 2.22273 10.3437
upperneck 9.15931 3.209 -6.0514
head 3.31185 1.78976 -3.40715
rclavicle -4.73108e-014 3.26007e-014
rhumerus 84.6065 14.6663 -73.0481
rradius 55.5953
rwrist 29.51
rhand -28.7543 8.90654
rfingers 7.12502
rthumb -2.11443 -21.0627
lclavicle -4.73108e-014 3.26007e-014
lhumerus 54.9659 -18.2528 79.3813
lradius 80.9633
lwrist 49.939
lhand -46.8973 -3.88049
lfingers 7.12502
lthumb -19.6085 25.1506
rfemur 370.31 11.1129 -358.861
rtibia 47.3125
rfoot -33.7868 8.01607
rtoes -45.7552
lfemur -29.9093 -0.472922 -20.7384
ltibia 71.9495
lfoot -27.8703 3.52442
ltoes -23.3861
298
root -1.44917 16.4416 3.72978 -549.144 30.9755 -543.16
lowerback 3.07411 4.80305 2.87948
upperback 9.35219 7.58912 -3.33401
thorax 9.02535 4.53198 -4.67611
lowerneck -2.0776 2.24984 10.3361
upperneck 9.42937 3.25425 -6.00429
head 3.40808 1.82116 -3.38862
rclavicle 1.92821e-014 -1.43125e-014
rhumerus 83.8905 14.8893 -72.864
rradius 55.9068
rwrist 29.4644
rhand -27.9599 8.5143
rfingers 7.12502
rthumb -1.34723 -21.4612
lclavicle 1.92821e-014 -1.43125e-014
lhumerus 54.3478 -18.1847 79.8258
lradius 80.9569
lwrist 50.125
lhand -47.469 -3.65824
lfingers 7.12502
lthumb -20.1581 25.3159
rfemur 370.131 11.5186 -358.508
rtibia 48.4128
rfoot -33.6665 7.32191
rtoes -46.5847
lfemur -29.7381 -0.383766 -20.692
ltibia 72.4202
lfoot -28.254 3.29531
ltoes -22.7839
299
root -1.44904 16.4423 3.66461 -549.143 30.975 -542.978
lowerback 3.00472 4.77863 2.91008
upperback 9.45058 7.55297 -3.19681
thorax 9.15367 4.51397 -4.53659
lowerneck -2.19803 2.28208 10.2855
upperneck 9.78306 3.31006 -5.96378
head 3.53748 1.85776 -3.3641
rclavicle -9.14409e-015 2.14687e-014
rhumerus 83.303 15.1188 -72.59
rradius 56.0105
rwrist 29.34
rhand -27.0854 8.04207
rfingers 7.12502
rthumb -0.502579 -21.9371
lclavicle -9.14409e-015 2.14687e-014
lhumerus 53.793 -18.0511 80.2793
lradius 80.7855
lwrist 50.3806
lhand -47.9631 -3.87799
lfingers 7.12502
lthumb -20.6329 25.0454
rfemur 369.963 11.8881 -358.17
rtibia 49.272
rfoot -33.2802 6.74593
rtoes -47.2574
lfemur -29.4728 -0.306313 -20.666
ltibia 72.6554
lfoot -28.6007 3.14309
ltoes -22.311
300
root -1.44809 16.4275 3.61165 -549.121 30.9306 -542.88
lowerback 2.89708 4.75846 2.84523
upperback 9.50587 7.51748 -3.07964
thorax 9.24569 4.48538 -4.36494
lowerneck -2.37461 2.30864 10.1782
upperneck 10.2553 3.35818 -5.85464
head 3.70957 1.8944 -3.30868
rclavicle 2.13694e-014 -7.55382e-015
rhumerus 82.8273 15.3164 -72.2684
rradius 55.871
rwrist 29.128
rhand -26.3148 7.56798
rfingers 7.12502
rthumb 0.241683 -22.4116
lclavicle 2.13694e-014 -7.55382e-015
lhumerus 53.2575 -17.9274 80.7474
lradius 80.5266
lwrist 50.6335
lhand -48.3289 -4.45416
lfingers 7.12502
lthumb -20.9844 24.4306
rfemur 369.751 12.1968 -357.949
rtibia 50.0593
rfoot -32.6811 6.28747
rtoes -47.8541
lfemur -29.3972 -0.207722 -20.6933
ltibia 72.898
lfoot -28.8579 3.07266
ltoes -21.9565
